<?xml version="1.0" encoding="UTF-8"?><svg id="Capa_2" xmlns="http://www.w3.org/2000/svg" viewBox="0 0 15.01 17.03"><defs><style>.cls-1{fill:#fcb604;}</style></defs><g id="Capa_1-2"><g id="date"><path id="icon_calendar" class="cls-1" d="M4.29,17.03h0c-1.16,.05-2.28-.38-3.12-1.18C.38,14.99-.04,13.84,.01,12.67V5.58c-.05-1.08,.31-2.15,1.01-2.98,.71-.77,1.69-1.23,2.74-1.3V.66c0-.17,.06-.34,.18-.47,.25-.25,.64-.24,.89,0,0,0,0,0,.01,.01,.12,.12,.18,.29,.18,.46v.6h4.89V.65c0-.17,.06-.34,.18-.47,.25-.25,.64-.24,.89,0,0,0,0,0,.01,.01,.12,.12,.18,.29,.18,.46v.64c1.05,.05,2.04,.5,2.77,1.27,.71,.82,1.09,1.88,1.05,2.97v7.17c.2,2.19-1.43,4.13-3.62,4.32-.21,.02-.43,.02-.64,0H4.29Zm6.57-4.93c-.39,0-.7,.32-.7,.7s.32,.7,.7,.7c.39,0,.7-.32,.7-.7,0-.38-.31-.69-.7-.7h0Zm-6.77,0h0c-.38,.02-.68,.35-.67,.73,0,.37,.3,.67,.67,.68h.03c.18,0,.35-.09,.47-.23,.12-.14,.19-.32,.18-.51,0-.38-.31-.68-.68-.68h0Zm3.39,0h0c-.38,.03-.68,.35-.67,.73,0,.37,.31,.67,.68,.68h.03c.38-.03,.67-.35,.65-.73,0-.38-.31-.68-.68-.68h0Zm-3.39-3.06h0c-.38,.02-.68,.35-.67,.73,0,.37,.3,.67,.68,.68h.03c.18,0,.35-.09,.47-.23,.12-.14,.19-.32,.18-.51,0-.38-.31-.68-.68-.68h0Zm3.39-.02h0c-.38,.02-.68,.35-.67,.73,0,.37,.31,.67,.68,.68h.03c.38-.03,.67-.35,.65-.73,0-.38-.31-.68-.68-.68h0Zm3.39,0h0c-.38,.01-.68,.33-.67,.71h0c0,.39,.31,.69,.68,.69h.02c.39,0,.69-.32,.69-.71,0-.39-.32-.69-.71-.69h0ZM3.76,2.61c-1.65,.17-2.49,1.17-2.49,2.97v.27l12.45-.02v-.3c-.03-1.8-.89-2.79-2.54-2.93v.66c0,.36-.28,.65-.63,.65-.17,0-.33-.07-.45-.19-.12-.13-.18-.29-.18-.46v-.69H5.02v.69c0,.36-.28,.65-.64,.65h0c-.17,0-.33-.07-.45-.19-.12-.13-.18-.29-.18-.46v-.66h0Z"/></g></g></svg>