<?xml version="1.0" encoding="UTF-8"?><svg id="Capa_2" xmlns="http://www.w3.org/2000/svg" viewBox="0 0 132.66 132.66"><defs><style>.cls-1{fill:#fff;}.cls-2{fill:#3ed638;}.cls-3{fill:#6149cd;}</style></defs><g id="Layer_1"><g><path class="cls-1" d="M39.8,0h53.06c21.99,0,39.8,17.82,39.8,39.8v53.06c0,21.99-17.81,39.8-39.8,39.8H39.8C17.82,132.66,0,114.85,0,92.86V39.8C0,17.82,17.82,0,39.8,0Z"/><path class="cls-3" d="M46.07,15.87h41.27c17.1,0,30.95,13.86,30.95,30.95v41.27c0,17.1-13.85,30.95-30.95,30.95H46.07c-17.09,0-30.95-13.85-30.95-30.95V46.83c0-17.09,13.86-30.95,30.95-30.95Zm0,10.32c-11.4,0-20.64,9.24-20.64,20.64v41.27c0,11.4,9.24,20.64,20.64,20.64h41.27c11.4,0,20.64-9.23,20.64-20.64V46.83c0-11.4-9.23-20.64-20.64-20.64H46.07Z"/><path class="cls-3" d="M77.03,62.31h15.48c2.85,0,5.16,2.31,5.16,5.16s-2.31,5.16-5.16,5.16h-15.48c-2.85,0-5.16-2.31-5.16-5.16s2.31-5.16,5.16-5.16Z"/><path class="cls-3" d="M66.71,82.94h25.8c2.85,0,5.16,2.31,5.16,5.16s-2.31,5.16-5.16,5.16h-25.8c-2.85,0-5.16-2.31-5.16-5.16s2.31-5.16,5.16-5.16Z"/><path class="cls-3" d="M66.71,41.67h25.8c2.85,0,5.16,2.31,5.16,5.16s-2.31,5.16-5.16,5.16h-25.8c-2.85,0-5.16-2.31-5.16-5.16s2.31-5.16,5.16-5.16Z"/><path class="cls-2" d="M45.19,68.72l10.95-10.95c2.02-2.01,5.29-2.01,7.3,0s2.01,5.28,0,7.3l-14.59,14.59c-2.01,2.02-5.28,2.02-7.3,0h0s-7.3-7.3-7.3-7.3c-1.97-2.05-1.92-5.32,.13-7.3,2-1.93,5.17-1.93,7.16,0l3.65,3.65Z"/></g></g></svg>