<?xml version="1.0" encoding="UTF-8"?><svg id="Capa_2" xmlns="http://www.w3.org/2000/svg" viewBox="0 0 21.23 22.85"><defs><style>.cls-1{fill:#fff;}.cls-2{fill:#3ed638;}.cls-3{fill:#6149cd;}</style></defs><g id="Capa_1-2"><g><path id="Trazado_40" class="cls-2" d="M16.18,12.75c-2.79,0-5.05,2.26-5.05,5.05,0,2.79,2.26,5.05,5.05,5.05,2.79,0,5.05-2.26,5.05-5.05,0-2.79-2.26-5.05-5.05-5.05"/><path id="Trazado_41" class="cls-1" d="M16.18,20.72c-.18,0-.32-.14-.32-.32v-5.19c0-.18,.14-.32,.32-.32,.18,0,.32,.14,.32,.32h0v5.2c0,.18-.14,.32-.32,.32"/><path id="Trazado_42" class="cls-1" d="M18.78,18.12h-5.2c-.18,0-.32-.14-.32-.32,0-.18,.14-.32,.32-.32h5.2c.18,0,.32,.15,.32,.32,0,.18-.14,.32-.32,.32"/><path id="Trazado_43" class="cls-3" d="M12.84,22.37H3c-1.66,0-3-1.34-3-3V3C0,1.34,1.34,0,3,0h13.8c1.66,0,3,1.34,3,3V13.52c0,.18-.14,.32-.32,.32-.18,0-.32-.14-.32-.32h0V3c0-1.3-1.05-2.35-2.35-2.35H3c-1.3,0-2.35,1.05-2.35,2.35V19.37c0,1.3,1.05,2.35,2.35,2.35H12.84c.18,0,.32,.14,.32,.32,0,.18-.14,.32-.32,.32"/><path id="Trazado_44" class="cls-2" d="M5.59,5.33H3.18c-.18,0-.32-.14-.32-.32V2.6c0-.18,.14-.32,.32-.32h2.41c.18,0,.32,.14,.32,.32v2.41c0,.18-.14,.32-.32,.32m-2.09-.65h1.76v-1.76h-1.76v1.76Z"/><path id="Trazado_45" class="cls-3" d="M16.43,3.43H7.37c-.18,0-.32-.14-.32-.32s.14-.32,.32-.32h9.08c.18,0,.32,.15,.32,.32,0,.18-.14,.32-.32,.32"/><path id="Trazado_46" class="cls-3" d="M14.75,4.83H7.36c-.18,0-.32-.14-.32-.32s.14-.32,.32-.32h7.4c.18,0,.32,.15,.32,.32,0,.18-.14,.32-.32,.32"/><path id="Trazado_47" class="cls-2" d="M5.59,10.25H3.18c-.18,0-.32-.14-.32-.32v-2.41c0-.18,.14-.32,.32-.32h2.41c.18,0,.32,.14,.32,.32v2.41c0,.18-.14,.32-.32,.32m-2.09-.65h1.76v-1.76h-1.76v1.76Z"/><path id="Trazado_48" class="cls-3" d="M16.43,8.35H7.37c-.18,0-.32-.14-.32-.32s.14-.32,.32-.32h9.08c.18,0,.32,.15,.32,.32,0,.18-.14,.32-.32,.32"/><path id="Trazado_49" class="cls-3" d="M14.75,9.75H7.36c-.18,0-.32-.14-.32-.32s.14-.32,.32-.32h7.4c.18,0,.32,.15,.32,.32,0,.18-.14,.32-.32,.32"/><path id="Trazado_50" class="cls-2" d="M5.59,15.18H3.18c-.18,0-.32-.14-.32-.32v-2.41c0-.18,.14-.32,.32-.32h2.41c.18,0,.32,.14,.32,.32v2.41c0,.18-.14,.32-.32,.32m-2.09-.65h1.76v-1.76h-1.76v1.76Z"/><path id="Trazado_51" class="cls-3" d="M11.78,13.27H7.37c-.18,0-.32-.15-.32-.32,0-.18,.14-.32,.32-.32h4.42c.18,0,.32,.15,.32,.32,0,.18-.14,.32-.32,.32"/><path id="Trazado_52" class="cls-3" d="M10.6,14.67h-3.23c-.18,0-.32-.14-.32-.32,0-.18,.14-.32,.32-.32h3.24c.18,0,.32,.14,.32,.32,0,.18-.14,.32-.32,.32h0"/><path id="Trazado_53" class="cls-2" d="M5.59,20.1H3.18c-.18,0-.32-.14-.32-.32v-2.41c0-.18,.14-.32,.32-.32h2.41c.18,0,.32,.14,.32,.32v2.41c0,.18-.14,.32-.32,.32m-2.09-.65h1.76v-1.76h-1.76v1.76Z"/><path id="Trazado_54" class="cls-3" d="M9.58,18.19h-2.21c-.18,0-.32-.14-.32-.32,0-.18,.14-.32,.32-.32h2.22c.18,0,.32,.14,.32,.32,0,.18-.14,.32-.32,.32h0"/><path id="Trazado_55" class="cls-3" d="M9.79,19.6h-2.43c-.18,0-.32-.14-.32-.32,0-.18,.14-.32,.32-.32h2.43c.18,0,.32,.14,.32,.32,0,.18-.14,.32-.32,.32h0"/></g></g></svg>